<svg xmlns="http://www.w3.org/2000/svg" viewBox="0 0 180 40" width="180" height="40">
  <path d="M38.55,20c0,10.49-8.51,19-19,19s-19-8.51-19-19S9.06,1,19.55,1,38.55,9.51,38.55,20Z" fill="#003580"/>
  <path d="M19.55,11.5a8.5,8.5,0,1,0,8.5,8.5A8.5,8.5,0,0,0,19.55,11.5Zm0,14a5.5,5.5,0,1,1,5.5-5.5A5.5,5.5,0,0,1,19.55,25.5Z" fill="#ffffff"/>
  <path d="M52.55,14h4v12h-4Zm0-5h4v3h-4Z" fill="#003580"/>
  <path d="M60.55,14h4v1.5a5.5,5.5,0,0,1,4.5-2c4,0,6,2.5,6,6.5v6h-4v-5.5c0-2-1-3-2.5-3s-2.5,1-2.5,3v5.5h-4Z" fill="#003580"/>
  <path d="M85.55,26.5c-4.5,0-7.5-3-7.5-7s3-7,7.5-7,7.5,3,7.5,7S90.05,26.5,85.55,26.5Zm0-10c-1.5,0-2.5,1.5-2.5,3s1,3,2.5,3,2.5-1.5,2.5-3S87.05,16.5,85.55,16.5Z" fill="#003580"/>
  <path d="M104.55,26.5c-4.5,0-7.5-3-7.5-7s3-7,7.5-7,7.5,3,7.5,7S109.05,26.5,104.55,26.5Zm0-10c-1.5,0-2.5,1.5-2.5,3s1,3,2.5,3,2.5-1.5,2.5-3S106.05,16.5,104.55,16.5Z" fill="#003580"/>
  <path d="M114.55,14h4v1.5a4,4,0,0,1,3.5-2,3.5,3.5,0,0,1,3.5,2,5,5,0,0,1,4-2c3.5,0,5,2,5,5.5v7h-4v-6c0-1.5-.5-2.5-2-2.5s-2,1-2,2.5v6h-4v-6c0-1.5-.5-2.5-2-2.5s-2,1-2,2.5v6h-4Z" fill="#003580"/>
  <path d="M137.55,20c0-4,3-7,7.5-7a6.5,6.5,0,0,1,6.5,4l-3.5,1.5a3,3,0,0,0-3-2c-1.5,0-2.5,1.5-2.5,3.5s1,3.5,2.5,3.5a3,3,0,0,0,3-2l3.5,1.5a6.5,6.5,0,0,1-6.5,4C140.55,27,137.55,24,137.55,20Z" fill="#003580"/>
  <path d="M153.55,20c0-4,3-7,7.5-7s7.5,3,7.5,7-3,7-7.5,7S153.55,24,153.55,20Zm10,0c0-1.5-1-3-2.5-3s-2.5,1.5-2.5,3,1,3,2.5,3S163.55,21.5,163.55,20Z" fill="#003580"/>
  <path d="M170.55,14h4v1.5a5,5,0,0,1,4-2v4h-1c-2,0-3,1-3,3.5v5h-4Z" fill="#003580"/>
</svg>