<svg width="120" height="30" viewBox="0 0 120 30" fill="none" xmlns="http://www.w3.org/2000/svg">
  <path d="M15 5H5C3.89543 5 3 5.89543 3 7V23C3 24.1046 3.89543 25 5 25H15C16.1046 25 17 24.1046 17 23V7C17 5.89543 16.1046 5 15 5Z" fill="#2D9CDB"/>
  <path d="M10 15C11.6569 15 13 13.6569 13 12C13 10.3431 11.6569 9 10 9C8.34315 9 7 10.3431 7 12C7 13.6569 8.34315 15 10 15Z" fill="white"/>
  <path d="M7 18C7 16.8954 7.89543 16 9 16H11C12.1046 16 13 16.8954 13 18V21H7V18Z" fill="white"/>
  <path d="M27.1 20.5V9.5H30.7C31.5 9.5 32.2 9.7 32.8 10C33.4 10.3 33.8 10.8 34.1 11.3C34.4 11.8 34.6 12.4 34.6 13.1C34.6 13.8 34.4 14.4 34.1 14.9C33.8 15.4 33.4 15.9 32.8 16.2C32.2 16.5 31.5 16.7 30.7 16.7H28.9V20.5H27.1ZM28.9 15.1H30.6C31.2 15.1 31.7 14.9 32 14.6C32.3 14.3 32.5 13.8 32.5 13.1C32.5 12.4 32.3 11.9 32 11.6C31.7 11.3 31.2 11.1 30.6 11.1H28.9V15.1Z" fill="#333333"/>
  <path d="M41.9 20.7C40.9 20.7 40 20.5 39.3 20C38.6 19.5 38 18.9 37.6 18.1C37.2 17.3 37 16.4 37 15.3C37 14.3 37.2 13.4 37.6 12.6C38 11.8 38.6 11.2 39.3 10.7C40 10.2 40.9 10 41.9 10C42.9 10 43.8 10.2 44.5 10.7C45.2 11.2 45.8 11.8 46.2 12.6C46.6 13.4 46.8 14.3 46.8 15.3C46.8 16.3 46.6 17.3 46.2 18.1C45.8 18.9 45.2 19.5 44.5 20C43.8 20.5 42.9 20.7 41.9 20.7ZM41.9 19C42.5 19 43.1 18.8 43.5 18.5C43.9 18.2 44.3 17.7 44.5 17.1C44.7 16.5 44.9 15.9 44.9 15.3C44.9 14.6 44.8 14 44.5 13.4C44.3 12.8 43.9 12.4 43.5 12.1C43.1 11.8 42.5 11.6 41.9 11.6C41.3 11.6 40.7 11.8 40.3 12.1C39.9 12.4 39.5 12.9 39.3 13.4C39.1 14 39 14.6 39 15.3C39 16 39.1 16.6 39.3 17.1C39.5 17.7 39.9 18.1 40.3 18.5C40.7 18.8 41.3 19 41.9 19Z" fill="#333333"/>
  <path d="M53.9 20.7C52.9 20.7 52 20.5 51.3 20C50.6 19.5 50 18.9 49.6 18.1C49.2 17.3 49 16.4 49 15.3C49 14.3 49.2 13.4 49.6 12.6C50 11.8 50.6 11.2 51.3 10.7C52 10.2 52.9 10 53.9 10C54.9 10 55.8 10.2 56.5 10.7C57.2 11.2 57.8 11.8 58.2 12.6C58.6 13.4 58.8 14.3 58.8 15.3C58.8 16.3 58.6 17.3 58.2 18.1C57.8 18.9 57.2 19.5 56.5 20C55.8 20.5 54.9 20.7 53.9 20.7ZM53.9 19C54.5 19 55.1 18.8 55.5 18.5C55.9 18.2 56.3 17.7 56.5 17.1C56.7 16.5 56.9 15.9 56.9 15.3C56.9 14.6 56.8 14 56.5 13.4C56.3 12.8 55.9 12.4 55.5 12.1C55.1 11.8 54.5 11.6 53.9 11.6C53.3 11.6 52.7 11.8 52.3 12.1C51.9 12.4 51.5 12.9 51.3 13.4C51.1 14 51 14.6 51 15.3C51 16 51.1 16.6 51.3 17.1C51.5 17.7 51.9 18.1 52
.3 18.5C52.7 18.8 53.3 19 53.9 19Z" fill="#333333"/>
  <path d="M65.7 20.7C64.8 20.7 64 20.5 63.3 20.1C62.6 19.7 62 19.1 61.6 18.3C61.2 17.5 61 16.5 61 15.4C61 14.3 61.2 13.3 61.6 12.5C62 11.7 62.6 11.1 63.3 10.7C64 10.3 64.8 10.1 65.7 10.1C66.4 10.1 67 10.2 67.6 10.5C68.2 10.8 68.6 11.1 68.9 11.6V10.2H70.8V20.5H68.9V19.1C68.6 19.6 68.1 20 67.5 20.3C66.9 20.6 66.3 20.7 65.7 20.7ZM66.1 19C66.7 19 67.2 18.9 67.6 18.6C68 18.3 68.3 17.9 68.6 17.4C68.8 16.9 68.9 16.2 68.9 15.5C68.9 14.8 68.8 14.1 68.6 13.6C68.4 13.1 68 12.7 67.6 12.4C67.2 12.1 66.7 12 66.1 12C65.5 12 65 12.1 64.6 12.4C64.2 12.7 63.8 13.1 63.6 13.6C63.4 14.1 63.3 14.8 63.3 15.5C63.3 16.2 63.4 16.9 63.6 17.4C63.8 17.9 64.2 18.3 64.6 18.6C65 18.9 65.5 19 66.1 19Z" fill="#333333"/>
  <path d="M78.3 20.7C77.4 20.7 76.6 20.5 75.9 20.1C75.2 19.7 74.6 19.1 74.2 18.3C73.8 17.5 73.6 16.5 73.6 15.4C73.6 14.3 73.8 13.3 74.2 12.5C74.6 11.7 75.2 11.1 75.9 10.7C76.6 10.3 77.4 10.1 78.3 10.1C79 10.1 79.6 10.2 80.2 10.5C80.8 10.8 81.2 11.1 81.5 11.6V6.5H83.4V20.5H81.5V19.1C81.2 19.6 80.7 20 80.1 20.3C79.5 20.6 78.9 20.7 78.3 20.7ZM78.7 19C79.3 19 79.8 18.9 80.2 18.6C80.6 18.3 80.9 17.9 81.2 17.4C81.4 16.9 81.5 16.2 81.5 15.5C81.5 14.8 81.4 14.1 81.2 13.6C81 13.1 80.6 12.7 80.2 12.4C79.8 12.1 79.3 12 78.7 12C78.1 12 77.6 12.1 77.2 12.4C76.8 12.7 76.4 13.1 76.2 13.6C76 14.1 75.9 14.8 75.9 15.5C75.9 16.2 76 16.9 76.2 17.4C76.4 17.9 76.8 18.3 77.2 18.6C77.6 18.9 78.1 19 78.7 19Z" fill="#333333"/>
  <path d="M90.9 20.7C90 20.7 89.2 20.5 88.5 20.1C87.8 19.7 87.3 19.1 86.9 18.3C86.5 17.5 86.3 16.5 86.3 15.4C86.3 14.3 86.5 13.3 86.9 12.5C87.3 11.7 87.9 11.1 88.6 10.7C89.3 10.3 90.1 10.1 91 10.1C91.7 10.1 92.3 10.2 92.9 10.5C93.5 10.8 93.9 11.1 94.2 11.6V10.2H96.1V20.5H94.2V19.1C93.9 19.6 93.4 20 92.8 20.3C92.2 20.6 91.6 20.7 90.9 20.7ZM91.3 19C91.9 19 92.4 18.9 92.8 18.6C93.2 18.3 93.5 17.9 93.8 17.4C94 16.9 94.1 16.2 94.1 15.5C94.1 14.8 94 14.1 93.8 13.6C93.6 13.1 93.2 12.7 92.8 12.4C92.4 12.1 91.9 12 91.3 12C90.7 12 90.2 12.1 89.8 12.4C89.4 12.7 89 13.1 88.8 13.6C88.6 14.1 88.5 14.8 88.5 15.5C88.5 16.2 88.6 16.9 88.8 17.4C89 17.9 89.4 18.3 89.8 18.6C90.2 18.9 90.7 19 91.3 19Z" fill="#333333"/>
  <path d="M98.3 20.5V10.2H100.2V11.7C100.5 11.2 100.9 10.8 101.4 10.5C101.9 10.2 102.5 10.1 103.2 10.1C104.1 10.1 104.9 10.3 105.5 10.8C106.1 11.3 106.5 12 106.7 12.9V10.2H108.6V20.5H106.7V14.7C106.7 13.8 106.5 13.1 106 12.7C105.5 12.3 104.9 12.1 104.2 12.1C103.4 12.1 102.8 12.3 102.3 12.8C101.8 13.3 101.5 14 101.5 15V20.5H99.6V14.7C99.6 13.8 99.4 13.1 98.9 12.7C98.4 12.3 97.8 12.1 97.1 12.1C96.3 12.1 95.7 12.3 95.2 12.8C94.7 13.3 94.4 14 94.4 15V20.5H92.5V10.2H94.4V11.7C94.7 11.2 95.1 10.8 95.6 10.5C96.1 10.2 96.7 10.1 97.4 10.1C98.3 10.1 99.1 10.3 99.7 10.8C100.3 11.3 100.7 12 100.9 12.9C101.1 12 101.5 11.3 102.1 10.8C102.7 10.3 103.5 10.1 104.4 10.1C105.3 10.1 106.1 10.3 106.7 10.8C107.3 11.3 107.7 12 107.9 12.9V10.2H109.8V20.5H107.9V14.7C107.9 13.8 107.7 13.1 107.2 12.7C106.7 12.3 106.1 12.1 105.4 12.1C104.6 12.1 104 12.3 103.5 12.8C103 13.3 102.7 14 102.7 15V20.5H100.8V14.7C100.8 13.8 100.6 13.1 100.1 12.7C99.6 12.3 99 12.1 98.3 12.1V20.5Z" fill="#333333"/>
  <path d="M112.1 8.5C111.7 8.5 111.4 8.4 111.2 8.2C111 8 110.9 7.7 110.9 7.3C110.9 6.9 111 6.6 111.2 6.4C111.4 6.2 111.7 6.1 112.1 6.1C112.5 6.1 112.8 6.2 113 6.4C113.2 6.6 113.3 6.9 113.3 7.3C113.3 7.7 113.2 8 113 8.2C112.8 8.4 112.5 8.5 112.1 8.5ZM111.2 20.5V10.2H113.1V20.5H111.2Z" fill="#333333"/>
  <path d="M120.3 20.7C119.3 20.7 118.4 20.5 117.6 20C116.8 19.5 116.2 18.9 115.7 18.1C115.2 17.3 115 16.4 115 15.3C115 14.2 115.2 13.3 115.7 12.5C116.2 11.7 116.8 11.1 117.6 10.6C118.4 10.1 119.3 9.9 120.3 9.9C121.3 9.9 122.2 10.1 123 10.6C123.8 11.1 124.4 11.7 124.9 12.5C125.4 13.3 125.6 14.2 125.6 15.3C125.6 16.4 125.4 17.3 124.9 18.1C124.4 18.9 123.8 19.5 123 20C122.2 20.5 121.3 20.7 120.3 20.7ZM120.3 19C120.9 19 121.5 18.8 122 18.5C122.5 18.2 122.8 17.7 123.1 17.1C123.4 16.5 123.5 15.9 123.5 15.3C123.5 14.7 123.4 14.1 123.1 13.5C122.8 12.9 122.5 12.4 122 12.1C121.5 11.8 120.9 11.6 120.3 11.6C119.7 11.6 119.1 11.8 118.6 12.1C118.1 12.4 117.8 12.9 117.5 13.5C117.2 14.1 117.1 14.7 117.1 15.3C117.1 15.9 117.2 16.5 117.5 17.1C117.8 17.7 118.1 18.2 118.6 18.5C119.1 18.8 119.7 19 120.3 19Z" fill="#333333"/>
</svg>

