<svg xmlns="http://www.w3.org/2000/svg" viewBox="0 0 120 40" width="120" height="40">
  <path d="M 10,5 L 20,5 L 20,35 L 10,35 Z" fill="#E50914"/>
  <path d="M 30,5 L 40,5 L 40,35 L 30,35 Z" fill="#E50914"/>
  <path d="M 10,5 L 40,35 L 30,35 L 10,15 Z" fill="#E50914"/>
  <path d="M 40,5 L 10,35 L 20,35 L 40,25 Z" fill="#E50914"/>
  <path d="M 50,15 L 60,15 L 60,35 L 50,35 Z" fill="#E50914"/>
  <path d="M 50,5 L 60,5 L 60,10 L 50,10 Z" fill="#E50914"/>
  <path d="M 70,5 L 80,5 L 80,25 C 80,28 78,30 75,30 C 72,30 70,28 70,25 Z" fill="#E50914"/>
  <path d="M 90,5 L 110,5 L 110,10 L 100,10 L 100,17 L 110,17 L 110,22 L 100,22 L 100,30 L 110,30 L 110,35 L 90,35 Z" fill="#E50914"/>
</svg>