<svg xmlns="http://www.w3.org/2000/svg" viewBox="0 0 170 50" width="170" height="50">
  <path d="M25,5 A20,20 0 1,0 25,45 A20,20 0 1,0 25,5 Z" fill="#1DB954"/>
  <path d="M35,20 C28,16 18,15 12,17 C11,17.2 10,16.5 10,15.5 C10,14.5 10.5,14 11.5,13.8 C19,12 30,13 38,17 C39,17.5 39.2,18.5 38.7,19.2 C38.2,20 37,20.5 35,20 Z M34,26 C33.5,26.7 32.5,27 31.7,26.5 C26,23 18,22 13,23.5 C12,23.7 11,23 11,22 C11,21 11.5,20.5 12.5,20.3 C18.5,19 27,20 34,24 C35,24.5 35.2,25.5 34,26 Z M31,32 C30.5,32.5 30,32.7 29.5,32.3 C25,29 19,28.5 14,30 C13.5,30.2 13,29.7 13,29.2 C13,28.7 13.3,28.3 13.8,28.1 C19.5,26.5 26,27 31,30.5 C31.5,30.7 31.7,31.2 31,32 Z" fill="white"/>
  <path d="M60,20 L65,20 L65,35 L60,35 Z M60,15 L65,15 L65,18 L60,18 Z" fill="#1DB954"/>
  <path d="M75,19.5 C79,19.5 82,22.5 82,27 C82,31.5 79,34.5 75,34.5 C73,34.5 71.5,33.5 70.5,32.5 L70.5,40 L65.5,40 L65.5,20 L70.5,20 L70.5,22 C71.5,20.5 73,19.5 75,19.5 Z M73.5,30.5 C75.5,30.5 77,29 77,27 C77,25 75.5,23.5 73.5,23.5 C71.5,23.5 70,25 70,27 C70,29 71.5,30.5 73.5,30.5 Z" fill="#1DB954"/>
  <path d="M90,19.5 C94,19.5 97,22.5 97,27 C97,31.5 94,34.5 90,34.5 C86,34.5 83,31.5 83,27 C83,22.5 86,19.5 90,19.5 Z M90,30.5 C92,30.5 92.5,29 92.5,27 C92.5,25 92,23.5 90,23.5 C88,23.5 87.5,25 87.5,27 C87.5,29 88,30.5 90,30.5 Z" fill="#1DB954"/>
  <path d="M105,19.5 C107,19.5 108.5,20.5 109.5,21.5 L109.5,20 L114.5,20 L114.5,34 C114.5,39 110.5,42 105.5,42 C101,42 98,39.5 97,36.5 L101.5,35 C102,36.5 103.5,38 105.5,38 C108,38 109.5,36.5 109.5,34 L109.5,32.5 C108.5,33.5 107,34.5 105,34.5 C101,34.5 98,31.5 98,27 C98,22.5 101,19.5 105,19.5 Z M106.5,30.5 C108.5,30.5 110,29 110,27 C110,25 108.5,23.5 106.5,23.5 C104.5,23.5 103,25 103,27 C103,29 104.5,30.5 106.5,30.5 Z" fill="#1DB954"/>
  <path d="M125,34.5 C121,34.5 118,31.5 118,27 C118,22.5 121,19.5 125,19.5 C129,19.5 132,22.5 132,27 L132,28 L123,28 C123.5,29.5 124.5,30.5 126.5,30.5 C128,30.5 129,30 130,28.5 L131.5,31 C130,33 128,34.5 125,34.5 Z M127.5,25.5 C127,24 126,23.5 125,23.5 C124,23.5 123,24 122.5,25.5 L127.5,25.5 Z" fill="#1DB954"/>
  <path d="M140,19.5 C142,19.5 143.5,20.5 144.5,21.5 L144.5,20 L149.5,20 L149.5,35 L144.5,35 L144.5,33 C143.5,34 142,35 140,35 C136,35 133,32 133,27.5 C133,23 136,19.5 140,19.5 Z M141.5,30.5 C143.5,30.5 145,29 145,27 C145,25 143.5,23.5 141.5,23.5 C139.5,23.5 138,25 138,27 C138,29 139.5,30.5 141.5,30.5 Z" fill="#1DB954"/>
  <path d="M160,19.5 C164,19.5 167,22.5 167,27 C167,31.5 164,34.5 160,34.5 C158,34.5 156.5,33.5 155.5,32.5 L155.5,40 L150.5,40 L150.5,20 L155.5,20 L155.5,22 C156.5,20.5 158,19.5 160,19.5 Z M158.5,30.5 C160.5,30.5 162,29 162,27 C162,25 160.5,23.5 158.5,23.5 C156.5,23.5 155,25 155,27 C155,29 156.5,30.5 158.5,30.5 Z" fill="#1DB954"/>
</svg>